<svg xmlns="http://www.w3.org/2000/svg" version="1.1" xmlns:xlink="http://www.w3.org/1999/xlink" xmlns:svgjs="http://svgjs.dev/svgjs" width="100%" height="100%" viewBox="0 0 1000 600"><rect width="1000" height="600" x="0" y="0" fill="#ffffff"/><g><rect width="333.3333333333333" height="333.3333333333333" rx="13.333333333333334" ry="13.333333333333334" y="191.07834017757946" fill="#8aaae5" transform="matrix(0.7402753019266557,0,0,0.7402753019266556,0,35.17021492232861)" x="168.85614013671872"/><path d="M300.2809627521466 430.23919361801615L300.2809627521466 363.3102885939754L227.9033397309375 363.3102885939754L227.9033397309375 430.23919361801615L207.973269623648 430.23919361801615L207.973269623648 283.38604545904116L227.9033397309375 283.38604545904116L227.9033397309375 346.11914624996837L300.2809627521466 346.11914624996837L300.2809627521466 283.38604545904116L320.21103285943616 283.38604545904116L320.21103285943616 430.23919361801615L300.2809627521466 430.23919361801615ZM396.58049740798253 354.71471742197184L463.072339491074 418.49676927117747L449.2320130276785 432.7450211461257L377.9033410647478 362.6984004766463L377.9033410647478 430.23919361801615L357.9732709574582 430.23919361801615L357.9732709574582 283.38604545904116L377.9033410647478 283.38604545904116L377.9033410647478 350.31495048308193L440.43247914989865 282.74501981231543L453.83574267234474 295.12846980587983L396.58049740798253 354.71471742197184Z " fill="#ffffff" transform="matrix(0.7402753019266557,0,0,0.7402753019266556,0,35.17021492232861)"/><path d="M689.0528995705832 424.00659144357365L670.5343811065728 432.74501734377856L652.3920200488627 393.16168412695635Q645.5343811801588 378.37580454084804 635.1177145441529 372.12580455924456Q624.7010479081472 365.875804577641 608.4394738819379 365.875804577641L608.4394738819379 365.875804577641L605.3144738911362 365.875804577641L605.3144738911362 430.25659142517713L585.5228072827251 430.25659142517713L585.5228072827251 284.8283511124956Q596.7785942866315 283.786684448895 606.674427590837 283.2658511170947Q616.5702608950426 282.7450177852944 628.231140490349 282.7450177852944L628.231140490349 282.7450177852944Q641.5702608214566 282.7450177852944 651.5528996809622 285.580665925096Q661.5644737255678 288.38737887979755 668.2195662985715 293.5957121978005Q674.9035940566753 298.8040455158034 678.3468810835772 305.8931658653074Q681.7612329253791 312.95335102971137 681.7612329253791 321.51816581931615L681.7612329253791 321.51816581931615Q681.7612329253791 336.70913799682467 672.704519989074 345.9973324139299Q663.6478070527689 355.2565916459351 646.5760478437594 359.82835089173767L646.5760478437594 359.82835089173767Q650.7427144981617 361.7091379232387 654.2728070803637 364.11075828654003Q657.8028996625657 366.5123786498414 660.9278996533675 369.9556656767433Q664.0528996441692 373.37001751854524 667.0910940796708 378.1732582451479Q670.1003533300726 382.9764989717506 673.2253533208743 389.8341378404545L673.2253533208743 389.8341378404545L689.0528995705832 424.00659144357365ZM628.231140490349 299.4116844029038L628.231140490349 299.4116844029038Q621.1420201408451 299.4116844029038 615.528594231442 299.6431658837039Q609.8862331369388 299.845712179404 605.3144738911362 300.2508047708042L605.3144738911362 300.2508047708042L605.3144738911362 349.2091379600317L628.231140490349 349.2091379600317Q643.2195663721575 349.2091379600317 652.5945663445627 342.55404538702794Q661.969566316968 335.87001762892424 661.969566316968 323.3700176657172L661.969566316968 323.3700176657172Q661.969566316968 312.95335102971137 653.2311404167631 306.18251771630753Q644.4927145165582 299.4116844029038 628.231140490349 299.4116844029038ZM799.7010473930453 383.7866841545511L723.8619272459027 383.7866841545511Q725.7427142774038 399.0065915171596 734.4811401776087 407.5424711216644Q743.2195660778135 416.07835072616916 757.6003530725217 416.07835072616916L757.6003530725217 416.07835072616916Q766.9753530449269 416.07835072616916 774.4695659858311 414.1107581393681Q781.9927141118353 412.143165552567 788.8503529805392 409.0181655617652L788.8503529805392 409.0181655617652L793.2195659306417 425.0482581071742Q785.7253529897374 428.57835068937624 776.3503530173322 430.66168401657734Q766.9753530449269 432.74501734377856 755.3144734496203 432.74501734377856L755.3144734496203 432.74501734377856Q743.6535938543138 432.74501734377856 734.2785938819086 428.8966377254764Q724.9035939095033 425.0482581071742 718.3353068917996 417.87233220237016Q711.7670198740959 410.66747111246616 708.236927291894 400.16399892116027Q704.6778995245919 389.6315915447544 704.6778995245919 376.08992491794675L704.6778995245919 376.08992491794675Q704.6778995245919 363.99501754614 708.236927291894 353.57835091013413Q711.7670198740959 343.1616842741283 718.2195661513996 335.580665777924Q724.7010476138032 327.97071209661976 733.6420198097082 323.6883047018174Q742.6119271907132 319.434832492115 753.6362327138194 319.434832492115L753.6362327138194 319.434832492115Q765.326047494226 319.434832492115 774.0644733944309 323.3700176657172Q782.8028992946357 327.3341380244194 788.6478066848391 334.2207120782233Q794.4927140750424 341.0783509469271 797.386232585044 350.2508046236323Q800.3086862801456 359.4232583003374 800.3086862801456 369.63737864064313L800.3086862801456 369.63737864064313Q800.3086862801456 376.9290452858472 799.7010473930453 383.7866841545511L799.7010473930453 383.7866841545511ZM753.2311401224192 335.6674713332241L753.2311401224192 335.6674713332241Q740.9336864549123 335.6674713332241 733.1211864779079 344.00080464202875Q725.3086865009035 352.33413795083345 723.6593809502026 368.5957119770425L723.6593809502026 368.5957119770425L783.0343807754359 368.5957119770425Q783.0343807754359 352.76816572733367 775.1061400580314 344.2033509377289Q767.177899340627 335.6674713332241 753.2311401224192 335.6674713332241ZM815.9336862341544 421.51816552497223L823.8619269515588 405.8931655709635Q829.2728065652619 410.66747111246616 837.4903991336664 413.5899248075678Q845.7369268871711 416.51237850266943 855.1119268595763 416.51237850266943L855.1119268595763 416.51237850266943Q866.7728064548829 416.51237850266943 872.7045194003862 412.66399888436723Q878.6362323458895 408.78668408096513 878.6362323458895 402.76816558016174L878.6362323458895 402.76816558016174Q878.6362323458895 399.64316558935997 877.507760126989 396.92325818995846Q876.3503527229883 394.20335079055695 873.3410934725865 391.71492487195553Q870.3028990370848 389.2264989533541 865.094565719082 386.8248785900528Q859.886232401079 384.42325822675144 851.5528990922743 381.5008045316498L851.5528990922743 381.5008045316498Q836.1593806190657 376.2924712136469 828.6362324930615 369.11654530884283Q821.1420195521573 361.91168421893883 821.1420195521573 349.2091379600317L821.1420195521573 349.2091379600317Q821.1420195521573 342.95913797842815 823.9487325068588 337.54825836472514Q826.7843806466605 332.13737875102214 832.0795195199634 328.05751765191985Q837.4035935783664 324.0065917379176 845.0135472596706 321.7207121150163Q852.5945657558749 319.434832492115 862.4035935047804 319.434832492115L862.4035935047804 319.434832492115Q873.0228064364863 319.434832492115 881.0378527091908 321.60497137461624Q889.0528989818953 323.80404544221744 895.534380444299 327.1315917287193L895.534380444299 327.1315917287193L890.3260471262961 342.55404538702794Q884.683686031793 339.2264991005261 877.507760126989 337.14316577332494Q870.3028990370848 335.0598324461238 861.5644731368799 335.0598324461238L861.5644731368799 335.0598324461238Q850.7427139094739 335.0598324461238 845.1003528149707 339.42904539622623Q839.4869269055675 343.7982583463286 839.4869269055675 349.00659166433155L839.4869269055675 349.00659166433155Q839.4869269055675 351.495017582933 840.4128528287681 353.57835091013413Q841.3677139370686 355.6616842373353 843.85613985567 357.5424712688364Q846.3445657742715 359.4232583003374 850.5112324286737 361.3040453318385Q854.6778990830761 363.1848323633395 860.9278990646795 365.2681656905407L860.9278990646795 365.2681656905407Q871.1420194049853 368.79825827274266 878.2311397544893 372.44409159534473Q885.3202601039933 376.08992491794675 889.6894730540956 380.4591378680492Q894.0586860041982 384.82835081815165 895.9394730356993 389.94987858085454Q897.8202600672003 395.0424711584574 897.8202600672003 401.2924711400609L897.8202600672003 401.2924711400609Q897.8202600672003 408.584137785265 894.6952600763985 414.4290451754683Q891.5702600855967 420.2450173805715 885.9278989910937 424.3248784796738Q880.3144730816905 428.3758043936761 872.2994268089859 430.5748784612773Q864.2843805362814 432.74501734377856 854.475352787376 432.74501734377856L854.475352787376 432.74501734377856Q841.9753528241689 432.74501734377856 832.1952602603635 429.6200173529768Q822.3862325114579 426.495017362175 815.9336862341544 421.51816552497223L815.9336862341544 421.51816552497223ZM927.3920192394169 325.8873787694186L931.3561395981191 291.71492516629945L945.7369265928272 291.71492516629945L945.7369265928272 325.8873787694186L975.742713541544 325.8873787694186L975.742713541544 342.1200176105277L945.7369265928272 342.1200176105277L945.7369265928272 394.43483227135704Q945.7369265928272 400.45335077216043 947.0968802925279 404.62001742656275Q948.4278988071287 408.78668408096513 950.7427136151299 411.3040451846665Q953.0285932380312 413.7924711032679 956.240398784133 414.9498785072686Q959.4811395153348 416.07835072616916 963.0112320975369 416.07835072616916L963.0112320975369 416.07835072616916Q968.2195654155397 416.07835072616916 972.8202598464424 414.4290451754683Q977.3920190922449 412.7508044396673 981.5586857466473 410.46492481676603L981.5586857466473 410.46492481676603L986.7670190646502 425.45335069857447Q982.6003524102479 427.97071180227584 975.5112320607439 430.37233216557723Q968.4510468963398 432.74501734377856 960.7253524746355 432.74501734377856L960.7253524746355 432.74501734377856Q945.1003525206269 432.74501734377856 936.0436395843218 422.55983218857284Q926.9869266480166 412.34571184826706 926.9869266480166 392.9591378312562L926.9869266480166 392.9591378312562L926.9869266480166 342.1200176105277L908.2369267032062 342.1200176105277L908.2369267032062 325.8873787694186L927.3920192394169 325.8873787694186ZM1069.897805856997 320.6790454514157L1064.2843799475936 340.03668428332657Q1060.3202595888915 338.3873787326256 1054.9093799751886 338.3873787326256L1054.9093799751886 338.3873787326256Q1049.0644725849852 338.3873787326256 1043.537852230882 340.87580465122704Q1038.0112318767788 343.3931657549284 1033.7577596670767 348.3700175921312Q1029.475352272274 353.375804614434 1026.8711856132727 361.1883045914384Q1024.2670189542714 369.0008045684428 1024.2670189542714 379.6200175001488L1024.2670189542714 379.6200175001488L1024.2670189542714 430.25659142517713L1005.5170190094607 430.25659142517713L1005.5170190094607 321.9232584107164L1023.6593800671709 321.9232584107164L1023.6593800671709 345.4764990821296Q1025.511231913572 340.4707120598268 1028.6362319043737 335.6674713332241Q1031.7612318951756 330.8931657917214 1036.0436392899778 327.3341380244194Q1040.32604668478 323.80404544221744 1045.9394725941834 321.60497137461624Q1051.5528985035867 319.434832492115 1058.4394725573902 319.434832492115L1058.4394725573902 319.434832492115Q1061.564472548192 319.434832492115 1064.573731798594 319.72418434311516Q1067.6119262340953 320.0424713792153 1069.897805856997 320.6790454514157L1069.897805856997 320.6790454514157ZM1162.8086852131491 376.08992491794675L1162.8086852131491 376.08992491794675Q1162.8086852131491 367.9591379048422 1160.2045185541474 360.66747125963815Q1157.600351895146 353.375804614434 1152.9128519089436 347.964925000731Q1148.2253519227406 342.55404538702794 1141.8885463858373 339.31330465582613Q1135.5228056638339 336.10149910972433 1128.0285927229297 336.10149910972433L1128.0285927229297 336.10149910972433Q1111.5644724010203 336.10149910972433 1102.3920187243152 346.9232583371304Q1093.21956504761 357.74501756453645 1093.21956504761 375.68483232654654L1093.21956504761 375.68483232654654Q1093.21956504761 383.7866841545511 1095.8237317066114 391.1940915401552Q1098.4278983656127 398.60149892575936 1103.1153983518157 404.09918409476245Q1107.8028983380182 409.62580444886555 1114.1686390600216 412.86654518006736Q1120.534379782025 416.07835072616916 1128.0285927229297 416.07835072616916L1128.0285927229297 416.07835072616916Q1136.1593797360342 416.07835072616916 1142.6119260133378 413.18483221616754Q1149.0644722906413 410.26237852106595 1153.549425981144 404.9383044626629Q1158.034379671646 399.64316558935997 1160.4070648498478 392.3514989441559Q1162.8086852131491 385.0598322989518 1162.8086852131491 376.08992491794675ZM1074.0644725113993 376.08992491794675L1074.0644725113993 376.08992491794675Q1074.0644725113993 362.9533508825394 1078.2311391658013 352.4498786912335Q1082.3978058202038 341.9174713148276 1089.5737317250077 334.6258046696235Q1096.778592814912 327.3341380244194 1106.6744261191175 323.3700176657172Q1116.570259423323 319.434832492115 1128.0285927229297 319.434832492115L1128.0285927229297 319.434832492115Q1139.284379726836 319.434832492115 1149.1802130310411 323.3700176657172Q1159.0760463352467 327.3341380244194 1166.367712980451 334.6258046696235Q1173.6593796256552 341.9174713148276 1177.8260462800572 352.33413795083345Q1181.9927129344596 362.75080458683925 1181.9927129344596 375.68483232654654L1181.9927129344596 375.68483232654654Q1181.9927129344596 388.58992488115376 1177.9128518353573 399.12233225755966Q1173.8619259213551 409.62580444886555 1166.5702592761509 417.12001738976977Q1159.278592630947 424.643165515774 1149.3827593267415 428.6940914297763Q1139.486926022536 432.74501734377856 1128.0285927229297 432.74501734377856L1128.0285927229297 432.74501734377856Q1116.3677131276231 432.74501734377856 1106.4718798234176 428.57835068937624Q1096.576046519212 424.4116840349738 1089.3711854293078 416.91747109406964Q1082.1952595245039 409.4232581531655 1078.1153984254015 399.0065915171596Q1074.0644725113993 388.58992488115376 1074.0644725113993 376.08992491794675Z " fill="#8aaae5" transform="matrix(0.7402753019266557,0,0,0.7402753019266556,0,35.17021492232861)"/></g></svg>